PathFileType	4	(X/Y/Z)	C:\Users\WrightLab\Desktop\Jo\P2_Trial35.trc
DataRate	CameraRate	NumFrames	NumMarkers	Units	OrigDataRate	OrigDataStartFrame	OrigNumFrames
100.00	100.00	      28	19	mm	100.00	144	      1148
Frame#	Time	Headset_Front			Headset_Back			Headset_Left			Headset_Right			Left_Shoulder			Right_Shoulder			Sternum			C7			Left Elbow			Right Elbow			Left Wrist			Right Wrist			Left ASIS			Right ASIS			S2			Left Knee			Right Knee			Left Ankle			Right Ankle			
		X1	Y1	Z1	X2	Y2	Z2	X3	Y3	Z3	X4	Y4	Z4	X5	Y5	Z5	X6	Y6	Z6	X7	Y7	Z7	X8	Y8	Z8	X9	Y9	Z9	X10	Y10	Z10	X11	Y11	Z11	X12	Y12	Z12	X13	Y13	Z13	X14	Y14	Z14	X15	Y15	Z15	X16	Y16	Z16	X17	Y17	Z17	X18	Y18	Z18	X19	Y19	Z19	

144	1.430				-225.01611	1695.52625	1889.05286	-333.82202	1585.22327	1813.31763													-257.86057	1459.73853	2038.60388	-335.13501	969.64166	2101.69800																			-332.14133	486.26239	1808.40259										
145	1.440				-222.62508	1695.63757	1880.97986	-332.41336	1585.31995	1805.16260													-256.02155	1460.99780	2031.04517	-334.94620	971.38977	2096.15161																			-334.23038	485.22415	1805.50366										
146	1.450				-220.58990	1695.57703	1871.17957	-330.85236	1585.70374	1797.58997													-253.82111	1462.02747	2022.83350	-333.83829	972.29932	2088.27271																			-336.47507	485.98639	1801.48096										
147	1.460				-218.37363	1696.35364	1863.85168	-328.69904	1585.59863	1790.43262													-251.78658	1463.86426	2016.77173	-333.18069	974.28290	2083.37891																			-339.23141	486.13422	1797.21570	-92.08952	545.38367	2098.75220							
148	1.470				-216.37210	1696.63745	1854.89429	-327.44009	1586.10156	1782.33447													-249.84399	1464.25513	2007.89392	-331.87698	975.41022	2077.56274																			-341.73285	486.90891	1794.44128	-87.82687	545.04535	2082.94043							
149	1.480				-213.98471	1697.09705	1847.62866	-325.28952	1586.16418	1775.41541													-247.72917	1465.35400	2001.35107	-330.48828	975.57782	2072.11621																			-344.75540	485.49606	1793.68713	-84.24336	545.37732	2067.68188							
150	1.490				-211.60295	1697.19629	1840.60889	-323.09711	1586.91602	1769.06189													-245.73320	1466.63977	1995.08850	-329.67062	977.90179	2068.32007																			-347.84186	486.75906	1787.31018	-81.39412	546.45697	2052.91797							
151	1.500				-209.07228	1697.41235	1831.51721	-321.84781	1586.92896	1761.69446													-244.30540	1467.34949	1987.11047	-327.32867	978.36432	2062.65527																			-350.22113	486.66351	1784.68811	-77.64129	546.99109	2038.58582							
152	1.510				-206.85472	1697.69250	1824.93115	-319.85831	1586.93005	1754.32507													-242.07730	1468.73865	1980.80383	-325.77145	978.96283	2058.47192																			-351.91220	487.03738	1782.60681	-72.37634	550.13367	2027.86060							
153	1.520				-203.83900	1698.04224	1817.75464	-317.37604	1587.10815	1748.21106													-239.90237	1469.67932	1973.59570	-324.07144	980.89368	2054.74463																			-353.93814	487.64529	1779.28430	-68.70607	553.52393	2014.62512							
154	1.530				-201.68329	1698.04700	1809.56763	-315.59259	1587.48694	1742.65674													-238.53230	1469.96375	1966.19666	-322.11334	982.10358	2050.43408																			-355.42130	487.88486	1779.60156	-63.02792	554.59259	2000.27222							
155	1.540				-199.14882	1697.80005	1801.61255	-313.26904	1587.41150	1734.69214													-236.46344	1471.54651	1960.29724	-320.12973	983.03442	2046.54846																			-356.09488	487.90219	1776.66296	-62.50972	558.66022	1984.14624							
156	1.550				-196.26140	1698.07239	1794.82947	-310.90799	1586.80640	1727.32874													-234.70892	1471.81128	1953.21582	-318.50946	984.19867	2042.72815																			-356.37448	487.92157	1776.52429	-59.45523	561.94446	1970.77234							
157	1.560				-194.06799	1698.42883	1789.09167	-308.69968	1586.69019	1720.81238													-233.22978	1472.58691	1946.43958	-316.95111	984.96838	2039.10596																			-356.48920	488.48563	1775.44470	-56.43813	562.96027	1956.04858							
158	1.570				-191.44350	1698.19128	1781.36853	-306.49432	1587.35034	1715.70422													-231.35274	1473.57214	1940.97803	-315.19040	985.92395	2034.54285																			-355.77402	488.22867	1773.97192	-53.28761	567.03497	1944.50549							
159	1.580				-189.17586	1697.97424	1774.32654	-304.21677	1586.56360	1708.98511													-230.13405	1473.81042	1933.81897	-314.34979	987.14252	2031.17249																			-355.24237	488.52747	1771.56873	-51.14966	569.56604	1931.81250							
160	1.590				-186.38811	1697.08752	1767.41309	-302.44098	1586.50403	1702.78076													-228.72696	1474.96411	1927.57825	-312.66458	988.03131	2026.59473																			-353.67542	487.74377	1772.69153	-48.53346	573.62830	1920.15759							
161	1.600				-183.45471	1696.95959	1760.88428	-300.35931	1586.48816	1695.60901													-227.08771	1475.64734	1922.51733	-312.09601	989.95294	2024.17139																			-352.38943	488.03604	1771.47473	-47.05829	578.36896	1910.99060							
162	1.610				-181.11920	1696.86353	1755.24390	-298.22882	1586.10413	1689.94055													-225.88596	1476.36462	1915.58362	-310.41959	990.43646	2019.38196																			-351.09232	487.75189	1771.07422	-45.24804	582.00110	1898.99292							
163	1.620				-178.96609	1696.10852	1748.51636	-295.99973	1585.88953	1684.11792													-224.29742	1476.69287	1909.69714	-309.73651	992.33203	2015.71899																			-349.32144	487.28302	1771.26758	-42.67326	586.69122	1889.88452							
164	1.630				-176.83865	1695.65137	1741.17249	-293.80078	1585.19836	1679.20532													-222.35770	1477.62939	1904.46130	-308.20175	992.84595	2010.88928																			-347.34006	487.58411	1769.74121	-40.34684	589.40924	1879.40088							
165	1.640				-174.65504	1694.86597	1735.47937	-291.60297	1585.53149	1673.07068													-221.20375	1478.21204	1898.38074	-307.48175	994.31238	2007.69092																			-345.67282	486.98389	1769.94043	-38.96487	594.94281	1873.52173							
166	1.650				-172.20116	1695.21729	1729.94299	-289.78519	1584.29956	1666.94080													-220.21974	1478.48755	1892.75391	-306.13849	996.03314	2004.16467																			-343.58255	486.37390	1768.74719	-36.32733	597.14307	1863.87830							
167	1.660				-170.23253	1694.50586	1724.57959	-288.09308	1583.77441	1660.69067													-218.55748	1479.29272	1888.35095	-304.85803	997.28912	2001.21533																			-341.76187	486.81418	1767.26367	-35.49591	601.17621	1859.91199							
168	1.670				-168.45291	1694.16357	1717.91772	-286.12076	1582.56799	1654.62659													-217.24687	1479.87305	1883.82935	-302.52765	997.31042	1997.17444																			-339.48227	486.21677	1767.03833	-33.93164	602.72925	1855.49963							
169	1.680				-166.48355	1692.87427	1711.44238	-284.62103	1582.40039	1650.50537													-216.22357	1480.45386	1878.00305	-300.97952	998.91699	1994.57336							32.90970	1132.33997	1824.96814										-337.20264	486.19443	1767.18201	-33.50917	604.71179	1854.54932							
170	1.690				-164.94099	1692.62146	1707.02307	-282.98544	1582.48840	1646.75952													-214.75095	1480.21484	1872.70483	-298.87842	999.82227	1992.26624							34.60750	1132.36462	1823.75195										-335.70233	486.40790	1765.00525	-33.02781	604.57196	1853.25269							
171	1.700				-162.81038	1692.36267	1701.95361	-281.01099	1582.11572	1641.30164													-213.38654	1480.63965	1868.81152	-296.07013	1000.18695	1989.48267							36.33517	1132.42688	1820.99243										-333.55832	485.92480	1765.45190	-32.99079	603.51862	1852.93640							
